Coordinates
version=1
nRows=18
nColumns=19
inDegrees=yes

Units are S.I. units (second, meters, Newtons, ...)
If the header above contains a line with 'inDegrees', this indicates whether rotational values are in degrees (yes) or radians (no).

endheader
time	pelvis_tilt	pelvis_list	pelvis_rotation	pelvis_tx	pelvis_ty	pelvis_tz	hip_flexion_r	hip_adduction_r	hip_rotation_r	knee_angle_r	knee_angle_r_beta	ankle_angle_r	hip_flexion_l	hip_adduction_l	hip_rotation_l	knee_angle_l	knee_angle_l_beta	ankle_angle_l
     13.26666667	      0.41836771	      8.85934006	      9.17699054	      2.26420019	      0.98778473	      1.00437064	    -14.68997211	     -8.10679839	    -11.78432856	     65.46538741	      1.14258656	    -13.20305050	     15.25737606	     13.40076771	     -8.22943940	     12.56734221	      0.21934150	      2.87925984
     13.27333333	      0.70199687	      9.51316086	      9.44186054	      2.26295859	      0.98321757	      1.00302518	    -13.68885984	     -9.73597867	    -12.51489122	     69.84415462	      1.21901046	    -12.21430183	     14.72060968	     14.24672276	     -8.77588148	     13.39036485	      0.23370595	      2.58662674
     13.28000000	      1.31650777	     10.18318480	      9.84844895	      2.26136904	      0.97867290	      1.00177685	    -13.06118892	    -11.22589934	    -13.19210660	     74.03753988	      1.29219884	    -11.03190041	     14.03672343	     14.98150612	     -9.17286063	     15.02515175	      0.26223837	      2.73103579
     13.28666667	      1.07116843	     10.71487228	     10.17402362	      2.25963308	      0.97307468	      1.00077578	    -11.24617392	    -12.75220247	    -13.32545893	     78.35606259	      1.36757128	     -9.87271368	     14.44071149	     15.55935630	     -9.82101435	     17.20234379	      0.30023754	      3.00369400
     13.29333333	      1.11292083	     11.17305664	     10.52373335	      2.25765411	      0.96766860	      1.00016311	     -9.65123353	    -14.02791837	    -13.26373653	     82.44953369	      1.43901583	     -8.74594725	     14.62736795	     15.91934780	    -10.29624370	     19.84477595	      0.34635668	      3.72553350
     13.30000000	      1.13781038	     11.61074628	     10.81615074	      2.25559892	      0.96220553	      0.99991325	     -7.90878376	    -15.24826519	    -12.93983613	     86.38335031	      1.50767388	     -7.68645305	     14.81161854	     16.18123762	    -10.64247142	     22.67308666	      0.39572001	      4.78161742
     13.30666667	      1.16715218	     11.84349945	     11.04287956	      2.25339477	      0.95685467	      1.00008696	     -5.95475056	    -16.13636511	    -12.28928021	     90.10722903	      1.57266783	     -6.77392702	     15.00094353	     16.15315488	    -10.82656962	     25.65733271	      0.44780493	      6.23113909
     13.31333333	      1.22917661	     12.00768959	     11.19146817	      2.25114610	      0.95175208	      1.00061082	     -3.87277092	    -16.88967481	    -11.42240028	     93.59384132	      1.63352069	     -5.99701632	     15.04137287	     16.01308273	    -10.82167180	     28.54098367	      0.49813414	      7.95491600
     13.32000000	      1.32912923	     12.06794894	     11.24578902	      2.24884949	      0.94704004	      1.00141910	     -1.65328477	    -17.46255706	    -10.34475104	     96.80563298	      1.68957703	     -5.36635098	     14.90040629	     15.73674375	    -10.65293817	     31.21935827	      0.54488059	      9.91521839
     13.32666667	      1.96486497	     12.24245771	     11.25242576	      2.24666352	      0.94329367	      1.00238524	     -0.05046330	    -18.05736042	     -9.37573720	     99.59959545	      1.73834087	     -4.72848472	     13.89650479	     15.51048981	    -10.21680274	     33.48800389	      0.58447593	     12.07841951
     13.33333333	      1.69037501	     11.95681239	     11.05157672	      2.24426206	      0.93929221	      1.00362904	      3.07263612	    -18.15582538	     -7.72846350	    102.27539390	      1.78504237	     -4.41505007	     13.86284512	     14.90943928	     -9.96475249	     35.52693679	      0.62006202	     14.12624898
     13.34000000	      1.95665621	     11.82712050	     10.83364193	      2.24205944	      0.93643816	      1.00481909	      5.49599115	    -18.33574002	     -6.30925751	    104.46967817	      1.82333985	     -4.02978236	     12.90084240	     14.42172352	     -9.51780371	     37.02422320	      0.64619460	     16.17721650
     13.34666667	      2.50669023	     11.67927571	     10.49306994	      2.24003977	      0.93457971	      1.00602779	      7.63804410	    -18.39496496	     -4.89803793	    106.22389685	      1.85395674	     -3.63683365	     11.35960238	     13.87880874	     -9.06450197	     37.99274782	      0.66309854	     18.10625356
     13.35333333	      3.05148893	     11.55705006	     10.49040633	      2.23806959	      0.93347088	      1.00665863	      9.60698837	    -18.54567957	     -3.90979772	    107.53995119	      1.87692623	     -3.30912752	      9.56586027	     13.50516930	     -8.10636797	     38.56908915	      0.67315760	     19.55754831
     13.36000000	      3.28230804	     11.16466978	      9.62520031	      2.23653352	      0.93256210	      1.00798292	     12.40706710	    -18.15708700	     -1.97528516	    108.60989675	      1.89560030	     -2.91073055	      7.97667757	     12.69363232	     -8.38031760	     38.61595715	      0.67397560	     21.08077718
     13.36666667	      3.53797281	     10.80070520	      9.37730198	      2.23519734	      0.93244751	      1.00841179	     14.75069441	    -17.93107040	     -0.87524561	    109.17760202	      1.90550862	     -2.44331451	      6.08468988	     12.13356178	     -7.78575801	     38.30980522	      0.66863224	     22.15525260
     13.37333333	      3.68539295	     10.34262573	      9.27053078	      2.23413266	      0.93288108	      1.00844804	     17.04399814	    -17.64898263	     -0.07252771	    109.33516001	      1.90825853	     -1.93971928	      4.15347145	     11.53379367	     -7.09452237	     37.70659784	      0.65810428	     22.70775487
     13.38000000	      3.98351843	      9.89034632	      8.46600521	      2.23356274	      0.93381882	      1.00893918	     19.34437827	    -17.08558273	      1.30727362	    109.18999858	      1.90572499	     -1.45584132	      1.90341493	     10.84368977	     -7.37518842	     36.67822567	      0.64015580	     22.91811017
